<svg xmlns="http://www.w3.org/2000/svg" width="135" height="40" fill="none"><g clip-path="url(#a)"><path fill="#A6A6A6" fill-rule="evenodd" d="M10.8 0h115.7a9 9 0 0 1 2.3.2l2.1.6a7 7 0 0 1 3.2 2.8c.3.6.6 1.3.7 2a12 12 0 0 1 .2 2.8v24.1l-.2 2a6 6 0 0 1-2 3.5 8.4 8.4 0 0 1-4 1.8 16.9 16.9 0 0 1-3.3.2H9.5a53 53 0 0 1-3.3-.2l-2.1-.6a7.1 7.1 0 0 1-3.2-2.8 6 6 0 0 1-.7-2A11.6 11.6 0 0 1 0 32V7.5c0-.6 0-1.3.2-2a6 6 0 0 1 2-3.5 7.3 7.3 0 0 1 4-1.8A16.8 16.8 0 0 1 9.5 0h1.3ZM8.4 39.1h117.2a50 50 0 0 0 3.1-.1 6 6 0 0 0 1.9-.6 6.1 6.1 0 0 0 2.7-2.4c.3-.5.5-1 .6-1.7l.2-1.8v-25c0-.6 0-1.2-.2-1.8 0-.6-.3-1.2-.6-1.7a6 6 0 0 0-2.7-2.4 6 6 0 0 0-1.9-.6l-2.1-.1H8.4L6.3 1a6 6 0 0 0-1.9.6A6.3 6.3 0 0 0 1.7 4a5 5 0 0 0-.6 1.7 11 11 0 0 0-.2 2.7v24.1c0 .6 0 1.2.2 1.8a5.3 5.3 0 0 0 1.7 3c.5.5 1 .8 1.6 1.1a6 6 0 0 0 1.9.6l2.1.1Z" clip-rule="evenodd"/><path fill="#000" d="M9.4 39.1a51 51 0 0 1-3.1-.1 6 6 0 0 1-1.9-.6A6.1 6.1 0 0 1 1.7 36c-.3-.5-.5-1-.6-1.7a11 11 0 0 1-.2-1.8v-24A91.2 91.2 0 0 1 1 5.6a5.3 5.3 0 0 1 1.7-3A6.3 6.3 0 0 1 6.3 1a16 16 0 0 1 2.1 0h118.2l2.1.1a6 6 0 0 1 1.9.6 6 6 0 0 1 2.7 2.4c.3.5.5 1 .6 1.7a11.5 11.5 0 0 1 .2 2.7v24.1c0 .6 0 1.2-.2 1.8a5.3 5.3 0 0 1-1.7 3c-.5.5-1 .8-1.6 1.1a6 6 0 0 1-1.9.6 16 16 0 0 1-3.1.1H9.4Z"/><path fill="#fff" d="M32.8 20.3a5 5 0 0 1 2.4-4.2 5 5 0 0 0-4-2.1c-1.7-.2-3.3 1-4.2 1-.9 0-2.2-1-3.6-1a5.3 5.3 0 0 0-4.5 2.8c-2 3.3-.5 8.2 1.4 11 1 1.3 2 2.7 3.4 2.7s2-.9 3.6-.9 2.1.9 3.6.9 2.4-1.4 3.3-2.7c.7-1 1.2-2 1.5-3.1a4.8 4.8 0 0 1-2.9-4.4ZM30 12.2c.9-1 1.3-2.2 1.2-3.5A5 5 0 0 0 27 12l-.3 1.8a4.1 4.1 0 0 0 3.3-1.5Zm20.3 14.9h-4.7l-1.1 3.4h-2l4.4-12.4H49l4.5 12.4h-2l-1.2-3.4Zm-4.2-1.5h3.7L48 20l-2 5.5Zm17.1.4c0 2.8-1.5 4.6-3.8 4.6a3 3 0 0 1-2.8-1.6v4.5h-2v-12h1.9v1.4a3.2 3.2 0 0 1 2.9-1.6c2.3 0 3.8 1.9 3.8 4.7Zm-2 0c0-1.9-.9-3-2.3-3s-2.4 1.2-2.4 3 1 3 2.4 3 2.4-1.2 2.4-3Zm12 0c0 2.8-1.6 4.6-3.8 4.6a3 3 0 0 1-2.9-1.6v4.5h-1.9v-12h1.8v1.4a3.2 3.2 0 0 1 3-1.6c2.2 0 3.8 1.9 3.8 4.7Zm-2 0c0-1.9-.9-3-2.3-3-1.5 0-2.4 1.2-2.4 3s1 3 2.4 3 2.3-1.2 2.3-3Zm8.5 1c.2 1.3 1.4 2 3 2s2.7-.7 2.7-1.8c0-1-.7-1.6-2.3-2l-1.6-.4c-2.3-.5-3.3-1.6-3.3-3.3 0-2.2 1.8-3.6 4.5-3.6 2.6 0 4.4 1.4 4.5 3.6h-2c0-1.3-1-2-2.5-2s-2.6.8-2.6 1.9c0 .8.7 1.4 2.3 1.7l1.4.4c2.5.6 3.6 1.6 3.6 3.4 0 2.3-1.9 3.8-4.8 3.8-2.8 0-4.6-1.4-4.8-3.7h2Zm11.7-7.7v2.1H93V23h-1.7v5c0 .8.3 1.1 1 1.1h.7v1.5h-1c-1.9 0-2.6-.6-2.6-2.4V23h-1.3v-1.5h1.3v-2.1h1.9ZM94 26c0-2.9 1.8-4.7 4.4-4.7 2.6 0 4.3 1.8 4.3 4.7 0 2.8-1.7 4.6-4.3 4.6-2.6 0-4.3-1.8-4.3-4.6Zm6.8 0c0-2-1-3.1-2.4-3.1-1.5 0-2.4 1.1-2.4 3 0 2 .9 3.2 2.4 3.2s2.4-1.2 2.4-3.1Zm3.4-4.6h1.8V23a2.2 2.2 0 0 1 2.2-1.7l.6.1v1.8l-.8-.2a1.9 1.9 0 0 0-2 2.1v5.4h-1.8v-9Zm13.2 6.4c-.2 1.7-1.8 2.8-3.9 2.8-2.6 0-4.3-1.8-4.3-4.6s1.7-4.7 4.2-4.7 4.1 1.8 4.1 4.5v.6h-6.4v.1a2.4 2.4 0 0 0 2.5 2.6 2 2 0 0 0 2-1.3h1.8Zm-6.3-2.7h4.6a2.2 2.2 0 0 0-2.3-2.3 2.3 2.3 0 0 0-2.3 2.3ZM45.9 8.7a2.6 2.6 0 0 1 2.8 3c0 1.9-1 3-2.8 3h-2.2v-6h2.2ZM44.6 14h1.2a1.9 1.9 0 0 0 2-2.2 1.9 1.9 0 0 0-2-2.1h-1.2V14Zm5.1-1.6a2.1 2.1 0 1 1 4.3 0 2.1 2.1 0 1 1-4.3 0Zm3.3 0c0-1-.4-1.5-1.2-1.5-.7 0-1.2.6-1.2 1.5 0 1 .5 1.6 1.2 1.6.8 0 1.2-.6 1.2-1.6Zm6.6 2.3h-1l-.9-3.3-1 3.3h-.9l-1.2-4.5h.9l.8 3.4 1-3.4h.9l.9 3.4.8-3.4h1l-1.3 4.5Zm2.3-4.5h.8v.7h.1a1.3 1.3 0 0 1 1.3-.8 1.5 1.5 0 0 1 1.6 1.7v2.9h-.9V12c0-.7-.3-1-1-1a1 1 0 0 0-1 1v2.7h-1v-4.5Zm5.2-1.8h1v6.3h-1V8.4Zm2.1 4a2.1 2.1 0 1 1 4.3 0 2.1 2.1 0 1 1-4.3 0Zm3.4 0c0-1-.5-1.5-1.2-1.5-.8 0-1.2.6-1.2 1.5 0 1 .4 1.6 1.2 1.6.7 0 1.2-.6 1.2-1.6Zm1.8 1c0-.8.6-1.3 1.7-1.3h1.2v-.5c0-.5-.3-.7-.9-.7-.5 0-.8.2-1 .5h-.8c0-.8.8-1.3 1.8-1.3 1.2 0 1.8.6 1.8 1.5v3.1h-.8v-.6h-.1a1.5 1.5 0 0 1-1.4.7 1.4 1.4 0 0 1-1.5-1.4Zm3-.4v-.3h-1.2c-.6 0-.9.3-.9.7 0 .4.4.6.9.6a1 1 0 0 0 1.1-1Zm2-.6c0-1.4.7-2.3 1.8-2.3a1.5 1.5 0 0 1 1.4.8V8.4h1v6.3h-.9V14a1.6 1.6 0 0 1-1.5.8c-1.1 0-1.8-1-1.8-2.4Zm.9 0c0 1 .4 1.6 1.2 1.6.7 0 1.2-.6 1.2-1.6 0-.9-.5-1.5-1.2-1.5-.8 0-1.2.6-1.2 1.5Zm7 0a2.1 2.1 0 1 1 4.2 0 2.1 2.1 0 1 1-4.2 0Zm3.3 0c0-1-.4-1.5-1.2-1.5-.8 0-1.2.6-1.2 1.5 0 1 .4 1.6 1.2 1.6.8 0 1.2-.6 1.2-1.6Zm2.1-2.2h.9v.7a1.3 1.3 0 0 1 1.4-.8 1.5 1.5 0 0 1 1.5 1.7v2.9h-.9V12c0-.7-.3-1-1-1a1 1 0 0 0-1 1v2.7h-.9v-4.5Zm8.8-1.2v1.2h1v.8h-1v2.3c0 .5.2.7.7.7h.3v.7a3 3 0 0 1-.5 0c-1 0-1.3-.3-1.3-1.2V11h-.8v-.8h.8V9.1h.8Zm2.2-.6h1V11a1.4 1.4 0 0 1 1.4-.8 1.5 1.5 0 0 1 1.5 1.7v2.9h-.9V12c0-.7-.3-1-1-1a1 1 0 0 0-1 1v2.7h-1V8.4Zm9.1 5.1a1.8 1.8 0 0 1-2 1.3 2 2 0 0 1-2-2.3 2 2 0 0 1 1.2-2.2l.8-.2c1.3 0 2 .9 2 2.3v.3h-3.1a1.2 1.2 0 0 0 1.2 1.3 1 1 0 0 0 1-.5h.9Zm-3.1-1.5h2.2a1 1 0 0 0-1-1.1 1.2 1.2 0 0 0-1.2 1.1Z"/></g><defs><clipPath id="a"><path fill="#fff" d="M0 0h135v40H0z"/></clipPath></defs></svg>