<svg xmlns="http://www.w3.org/2000/svg" width="135" height="40" fill="none"><g clip-path="url(#a)"><path fill="#000" d="M130 0H5a5 5 0 0 0-5 5v30a5 5 0 0 0 5 5h125a5 5 0 0 0 5-5V5a5 5 0 0 0-5-5Z"/><path fill="#A6A6A6" d="M130 .8a4.2 4.2 0 0 1 4.2 4.2v30a4.2 4.2 0 0 1-4.2 4.2H5A4.2 4.2 0 0 1 .8 35V5A4.2 4.2 0 0 1 5 .8h125Zm0-.8H5a5 5 0 0 0-5 5v30a5 5 0 0 0 5 5h125a5 5 0 0 0 5-5V5a5 5 0 0 0-5-5Z"/><path fill="#fff" d="M47.4 10.2a2.7 2.7 0 0 1-1.7 2.7 3 3 0 0 1-1.2.2 3 3 0 0 1-3.1-3.1 3 3 0 0 1 4.3-2.9l1 .7-.6.5a2 2 0 0 0-1.6-.7A2.3 2.3 0 0 0 42 10a2.4 2.4 0 0 0 4 1.7c.4-.3.5-.7.5-1.2h-2.1v-.7h2.9v.4ZM52 7.7h-2.7v2h2.5v.7h-2.5v1.9H52v.7h-3.5V7H52v.7ZM55.3 13h-.8V7.7h-1.7V7H57v.7h-1.7V13ZM60 13V7h.7v6H60ZM64.1 13h-.7V7.7h-1.7V7h4.1v.7h-1.7V13ZM73.6 12.2a3.1 3.1 0 0 1-5-1 3 3 0 0 1-.3-1.2 3 3 0 0 1 4.3-2.9 3.1 3.1 0 0 1 1.7 1.7l.2 1.2a3 3 0 0 1-.9 2.2Zm-3.8-.5a2.3 2.3 0 0 0 4-1.7 2.3 2.3 0 0 0-.8-1.7 2.3 2.3 0 0 0-3.9 1.7 2.4 2.4 0 0 0 .7 1.7ZM75.6 13V7h1l2.8 4.7V7h.8v6h-.8l-3-4.9V13h-.8Z"/><path stroke="#fff" stroke-miterlimit="10" stroke-width=".2" d="M47.4 10.2a2.7 2.7 0 0 1-1.7 2.7 3 3 0 0 1-1.2.2 3 3 0 0 1-3.1-3.1 3 3 0 0 1 4.3-2.9l1 .7-.6.5a2 2 0 0 0-1.6-.7A2.3 2.3 0 0 0 42 10a2.4 2.4 0 0 0 4 1.7c.4-.3.5-.7.5-1.2h-2.1v-.7h2.9v.4ZM52 7.7h-2.7v2h2.5v.7h-2.5v1.9H52v.7h-3.5V7H52v.7ZM55.3 13h-.8V7.7h-1.7V7H57v.7h-1.7V13ZM60 13V7h.7v6H60ZM64.1 13h-.7V7.7h-1.7V7h4.1v.7h-1.7V13ZM73.6 12.2a3.1 3.1 0 0 1-5-1 3 3 0 0 1-.3-1.2 3 3 0 0 1 4.3-2.9 3.1 3.1 0 0 1 1.7 1.7l.2 1.2a3 3 0 0 1-.9 2.2Zm-3.8-.5a2.3 2.3 0 0 0 4-1.7 2.3 2.3 0 0 0-.8-1.7 2.3 2.3 0 0 0-3.9 1.7 2.4 2.4 0 0 0 .7 1.7ZM75.6 13V7h1l2.8 4.7V7h.8v6h-.8l-3-4.9V13h-.8Z"/><path fill="#fff" d="M68.1 21.8a4.3 4.3 0 1 0 4 2.6 4.2 4.2 0 0 0-4-2.6Zm0 6.8a2.6 2.6 0 1 1 2.4-2.6 2.5 2.5 0 0 1-2.4 2.6Zm-9.3-6.8a4.3 4.3 0 1 0 4 2.6 4.2 4.2 0 0 0-4-2.6Zm0 6.8a2.6 2.6 0 1 1 2.4-2.6 2.5 2.5 0 0 1-2.4 2.6Zm-11-5.5v1.8H52a3.8 3.8 0 0 1-2.5 3.2c-.6.3-1.2.4-1.9.4a4.8 4.8 0 0 1 0-9.6c1.3 0 2.4.4 3.3 1.2l1.3-1.2a6.3 6.3 0 0 0-4.6-1.9 6.6 6.6 0 1 0 0 13.3 6 6 0 0 0 4.7-1.9 6 6 0 0 0 1.5-4.2V23h-6.2ZM93 24.5a4 4 0 0 0-3.7-2.7 4 4 0 0 0-4 4.2 4.2 4.2 0 0 0 4.2 4.3 4.2 4.2 0 0 0 3.6-2l-1.5-.9a2.4 2.4 0 0 1-2 1.2 2.2 2.2 0 0 1-2.1-1.3l5.6-2.4-.1-.4Zm-5.8 1.4a2.3 2.3 0 0 1 2.2-2.5 1.6 1.6 0 0 1 1.6.9l-3.8 1.6ZM82.6 30h1.9V17.5h-1.9V30Zm-3-7.3h-.1a3 3 0 0 0-2.2-1 4.3 4.3 0 0 0 0 8.6 2.9 2.9 0 0 0 2.2-1v.6c0 1.6-.8 2.5-2.2 2.5a2.4 2.4 0 0 1-2.1-1.5l-1.7.7a4 4 0 0 0 3.8 2.5c2.2 0 4-1.3 4-4.5V22h-1.7v.7Zm-2.2 5.9a2.6 2.6 0 0 1 0-5.2 2.4 2.4 0 0 1 2.3 2.6 2.4 2.4 0 0 1-2.3 2.6Zm24.4-11.1h-4.5V30h1.9v-4.7h2.6a3.9 3.9 0 1 0 0-7.8Zm0 6h-2.6v-4.3h2.7a2.1 2.1 0 1 1 0 4.3Zm11.6-1.8a3.5 3.5 0 0 0-3.3 2l1.6.6a1.8 1.8 0 0 1 1.7-.9 1.8 1.8 0 0 1 2 1.6v.2c-.6-.4-1.3-.5-2-.5-1.8 0-3.6 1-3.6 2.8a3 3 0 0 0 2 2.6c.4.1.8.2 1.1.1a2.6 2.6 0 0 0 2.4-1.2v1h1.9v-4.8c0-2.2-1.7-3.5-3.8-3.5Zm-.2 6.9c-.7 0-1.5-.3-1.5-1 0-1 1-1.4 2-1.4.6 0 1.2.1 1.7.4a2.3 2.3 0 0 1-2.2 2Zm10.5-6.6-2.1 5.4-2.3-5.4h-2l3.3 7.6-1.9 4.2h2l5.1-11.8h-2ZM107 30h1.9V17.5h-1.9V30Z"/><path fill="url(#b)" d="M10.4 7.5A2 2 0 0 0 10 9v22.2c0 .5.1 1 .4 1.4h.1L23 20.1V20L10.5 7.5Z"/><path fill="url(#c)" d="M27 24.3 23 20V20l4.1-4.2h.1l5 2.9c1.3.8 1.3 2 0 2.8l-5 2.8Z"/><path fill="url(#d)" d="M27.1 24.2 23 20 10.4 32.5a1.6 1.6 0 0 0 2.1 0l14.6-8.3Z"/><path fill="url(#e)" d="M27.1 15.8 12.5 7.5a1.6 1.6 0 0 0-2 0L22.8 20l4.2-4.2Z"/><path fill="#000" d="m27 24.1-14.5 8.3a1.7 1.7 0 0 1-2 0v.1a1.7 1.7 0 0 0 2 0l14.6-8.3Z" opacity=".2"/><path fill="#000" d="M10.4 32.3A2 2 0 0 1 10 31v.2c0 .5.1 1 .4 1.4l.1-.1ZM32 21.3l-5 2.8.1.1 5-2.8a1.8 1.8 0 0 0 1-1.4 1.9 1.9 0 0 1-1 1.3Z" opacity=".1"/><path fill="#fff" d="M12.5 7.6 32 18.7a1.9 1.9 0 0 1 1 1.3 1.8 1.8 0 0 0-1-1.4L12.5 7.5c-1.4-.8-2.5-.2-2.5 1.4v.2c0-1.6 1.1-2.3 2.5-1.5Z" opacity=".3"/></g><defs><linearGradient id="b" x1="21.8" x2="5" y1="8.7" y2="25.5" gradientUnits="userSpaceOnUse"><stop stop-color="#00A0FF"/><stop offset="0" stop-color="#00A1FF"/><stop offset=".3" stop-color="#00BEFF"/><stop offset=".5" stop-color="#00D2FF"/><stop offset=".8" stop-color="#00DFFF"/><stop offset="1" stop-color="#00E3FF"/></linearGradient><linearGradient id="c" x1="33.8" x2="9.6" y1="20" y2="20" gradientUnits="userSpaceOnUse"><stop stop-color="#FFE000"/><stop offset=".4" stop-color="#FFBD00"/><stop offset=".8" stop-color="orange"/><stop offset="1" stop-color="#FF9C00"/></linearGradient><linearGradient id="d" x1="24.8" x2="2.1" y1="22.3" y2="45.1" gradientUnits="userSpaceOnUse"><stop stop-color="#FF3A44"/><stop offset="1" stop-color="#C31162"/></linearGradient><linearGradient id="e" x1="7.3" x2="17.5" y1=".2" y2="10.3" gradientUnits="userSpaceOnUse"><stop stop-color="#32A071"/><stop offset=".1" stop-color="#2DA771"/><stop offset=".5" stop-color="#15CF74"/><stop offset=".8" stop-color="#06E775"/><stop offset="1" stop-color="#00F076"/></linearGradient><clipPath id="a"><path fill="#fff" d="M0 0h135v40H0z"/></clipPath></defs></svg>