<svg xmlns="http://www.w3.org/2000/svg" width="128" height="32" fill="none"><g clip-path="url(#a)"><g clip-path="url(#b)"><path fill="#F22BB2" d="M.7 32h10.8c5.2 0 9.3-4.2 9.3-9.3H10A9.3 9.3 0 0 0 .7 32Z"/><path fill="#8C30F5" d="M1.1 9.3V23c5.2 0 9.4-4.2 9.4-9.3V0A9.3 9.3 0 0 0 1 9.3Z"/><path fill="#FE9A22" d="M31.3 0H20.5a9.3 9.3 0 0 0-9.3 9.3H22c5.2 0 9.3-4.2 9.3-9.3Z"/><path fill="#2EC5CE" d="M31.3 22.1V8.4a9.3 9.3 0 0 0-9.3 9.4v13.7c5.2 0 9.3-4.2 9.3-9.4Z"/></g><path fill="#000" d="M46.2 20.5V8h-3.7v16H52v-3.5h-5.7Zm15.4-7.9v1a4.3 4.3 0 0 0-3.4-1.3c-3 0-5.5 2.6-5.5 6s2.5 6 5.5 6c1.5 0 2.6-.5 3.4-1.4V24H65V12.6h-3.4ZM58.8 21c-1.5 0-2.7-1.1-2.7-2.8 0-1.7 1.2-2.8 2.7-2.8 1.6 0 2.8 1 2.8 2.8 0 1.7-1.2 2.8-2.8 2.8Zm15.4-8.7c-1.5 0-2.6.5-3.3 1.3v-1h-3.4V24H71v-6.2c0-1.7 1-2.4 2.2-2.4 1 0 2 .7 2 2V24h3.4v-7c0-3.1-2-4.7-4.3-4.7ZM89.1 8v5.6a4.3 4.3 0 0 0-3.4-1.3c-3 0-5.4 2.6-5.4 6s2.4 6 5.4 6c1.6 0 2.7-.5 3.4-1.4V24h3.5V8H89Zm-2.7 13c-1.6 0-2.7-1-2.7-2.7 0-1.7 1.1-2.8 2.7-2.8s2.7 1 2.7 2.8c0 1.7-1.1 2.8-2.7 2.8Zm10.4-9.4c1.1 0 2-1 2-2a2 2 0 0 0-2-2.1 2 2 0 0 0-2 2c0 1.1.9 2 2 2ZM95 24h3.4V12.6H95V24Zm12.3-13V7.7c-3.8-.2-5.6 1.7-5.6 4.9h-1.5v3.3h1.5V24h3.5v-8.1h2.1v-3.3h-2.1c0-1.4.8-1.7 2.1-1.6Zm8.9 1.6-2.1 7-2.6-7h-3.8l4.6 10.9c-.5 1.4-1.3 1.9-2.9 1.9v3.2c3.2.1 5.3-1.3 6.6-5l3.9-11h-3.7Zm7-7.8H120v.8h1.1V9h.8V5.6h1.2v-.8Zm4.5 0h-.8l-1.2 2-1.2-2h-.9V9h.9V6.3l1.1 2h.1l1.2-2V9h.8V4.8Z"/></g><defs><clipPath id="a"><path fill="#fff" d="M0 0h128v32H0z"/></clipPath><clipPath id="b"><path fill="#fff" d="M0 0h32v32H0z"/></clipPath></defs></svg>