<svg xmlns="http://www.w3.org/2000/svg" width="112" height="32" fill="none"><g clip-path="url(#a)"><path fill="#FF385C" d="m32.1 22.7-.5-1.2-.8-1.6C28.2 15 25.7 10 23 5.2l-.1-.2-.8-1.4c-.4-.6-.7-1.2-1.3-1.8a5.8 5.8 0 0 0-2-1.4 6.3 6.3 0 0 0-7 1.4l-1.2 1.8-.9 1.5v.2C6.8 10.2 4.2 15 1.8 19.9L1 21.6l-.5 1.1a6.2 6.2 0 0 0 1 6.7c.9 1 1.9 1.6 3.1 2 1.2.5 2.5.7 3.8.5 1.2-.1 2.4-.5 3.5-1 1.4-.8 2.8-1.9 4.3-3.4 1.6 1.5 3 2.6 4.4 3.3 1.3.8 2.8 1.2 4.4 1.2 1.8 0 3.5-.6 4.9-1.7 1.3-1 2.2-2.5 2.5-4.1.3-1.2.2-2.4-.3-3.5Zm-15.8 1.6a15.5 15.5 0 0 1-3.5-6c-.2-.6-.2-1.2-.1-1.9 0-.5.3-1 .6-1.3.6-.9 1.8-1.4 3-1.4a4 4 0 0 1 1.8.3c.5.3 1 .6 1.3 1l.6 1.4-.1 2a16 16 0 0 1-3.6 6Zm14 1.5c-.1.8-.5 1.6-1 2.3-.6.6-1.3 1.2-2.2 1.5-.8.3-1.7.4-2.6.3-.9-.1-1.8-.4-2.7-.9-1.5-.8-2.8-1.8-4-3 2.3-2.7 3.7-5 4.3-7.1.2-1 .3-2 .1-2.8a5.3 5.3 0 0 0-3-3.9c-1-.4-1.9-.6-2.8-.5-2 0-3.9.8-5 2.2a5 5 0 0 0-.9 2.2 6 6 0 0 0 .2 2.8c.5 2 2 4.5 4.2 7a15.4 15.4 0 0 1-4 3.2c-.9.5-1.8.7-2.6.8-1.4.2-2.8-.2-3.9-1-1-.7-1.8-1.8-2-3 0-.9 0-1.7.3-2.6l.5-1 .8-1.6c2.4-4.8 5-9.7 7.7-14.5V6l1-1.4c.2-.5.5-1 1-1.4.3-.4.7-.7 1.2-.9a4 4 0 0 1 4.3.9l1 1.4L21 6l.1.2c2.7 4.8 5.3 9.7 7.7 14.5l.9 1.6.4 1c.2 1 .3 1.7.2 2.5Zm15.3-1.7a6 6 0 0 1-2.4-.4c-.7-.4-1.4-.8-2-1.4a6.2 6.2 0 0 1-1.7-4.5c0-1.7.6-3.3 1.8-4.6.6-.6 1.3-1 2-1.4a6.3 6.3 0 0 1 4.8 0c.7.4 1.3.9 1.8 1.5v-1.6h3.3v12.1H50l-.1-1.8c-.5.7-1.1 1.2-1.9 1.6-.7.3-1.5.5-2.4.5Zm.8-2.9c.7 0 1.2-.1 1.8-.4.5-.3.8-.8 1.2-1.3.2-.5.4-1 .4-1.8 0-.6-.1-1.1-.4-1.7-.3-.5-.7-1-1.2-1.3a3.5 3.5 0 0 0-3.5 0l-1.2 1.2c-.2.6-.4 1.2-.4 1.8 0 .6.1 1.2.4 1.8.3.5.7 1 1.2 1.3.6.3 1.1.4 1.7.4ZM58.7 8.5c0 .3 0 .6-.3.9a2 2 0 0 1-1.7.8c-.3 0-.7 0-1-.2a2 2 0 0 1-.8-.6l-.2-1c0-.3 0-.6.2-.9.2-.3.5-.5.8-.6.3-.2.6-.2 1-.2s.7 0 1 .2c.3.1.6.3.8.6l.2 1ZM55 23.8V11.7h3.4v12H55Zm12.8-9v.1l-.6-.1h-.6c-1 0-1.7.2-2.2.7-.5.6-.7 1.3-.7 2.3v6h-3.5V11.7h3.2v1.8c.4-.6.9-1.1 1.4-1.5.6-.3 1.3-.5 2-.5l.7.1h.3V15Zm1.4 9v-17h3.5v6.4c.5-.5 1-1 1.7-1.3a6 6 0 0 1 3.6-.4 6.2 6.2 0 0 1 4.8 6.2c0 1.6-.6 3.3-1.8 4.5-.5.6-1.2 1.1-2 1.4a6.3 6.3 0 0 1-4.7 0c-.7-.3-1.4-.8-1.8-1.4l-.1 1.5h-3.2Zm6.7-2.6c.7 0 1.2-.1 1.8-.4.4-.3.8-.8 1.1-1.3.3-.5.5-1 .5-1.8 0-.6-.2-1.2-.5-1.8-.2-.4-.7-.9-1.1-1.2a3.5 3.5 0 0 0-3.5 0 4 4 0 0 0-1.2 1.2c-.3.6-.4 1.2-.4 1.8 0 .6.1 1.2.4 1.8.3.5.7 1 1.2 1.3.5.3 1.1.4 1.7.4Zm8.3 2.6V11.7h3.2l.1 1.6c.4-.6 1-1.1 1.7-1.5.7-.3 1.4-.5 2.2-.4.9 0 1.8.2 2.5.6.7.4 1.3 1 1.7 1.8.4.8.6 1.7.6 2.8v7.2h-3.5V17a3 3 0 0 0-.6-2c-.5-.5-1-.8-1.8-.8-.5 0-1 .1-1.3.4-.4.2-.8.5-1 .9-.2.4-.4.9-.3 1.3v7h-3.5Zm13.7 0v-17h3.5v6.4c.5-.6 1.1-1 1.8-1.4a6 6 0 0 1 4.7 0 6.2 6.2 0 0 1 3.7 5.8c0 1.7-.6 3.4-1.8 4.6-.6.6-1.2 1-2 1.4a6.3 6.3 0 0 1-4.8 0c-.7-.3-1.3-.8-1.8-1.4v1.5h-3.3Zm6.8-2.6c.7 0 1.2-.1 1.7-.4.5-.3 1-.8 1.2-1.3.3-.5.4-1 .4-1.8 0-.6 0-1.1-.3-1.7a3.5 3.5 0 0 0-4.7-1.3c-.5.3-.9.7-1.2 1.2-.3.6-.4 1.2-.4 1.8 0 .6 0 1.2.4 1.8.3.5.7 1 1.2 1.3.5.3 1 .4 1.7.4Z"/></g><defs><clipPath id="a"><path fill="#fff" d="M0 0h112v32H0z"/></clipPath></defs></svg>