<svg xmlns="http://www.w3.org/2000/svg" width="142" height="116" fill="none"><g clip-path="url(#a)" opacity=".3"><path fill="#1DB5BE" fill-rule="evenodd" d="M141.4 18.1c-21.2 10-31.8 22-31.8 35.5 9 1 16.5 4.6 22.4 10.7a29.7 29.7 0 0 1 8.9 21.3 29.8 29.8 0 0 1-30.2 30.4c-9.8 0-18.2-3.8-25.3-11.4a39.3 39.3 0 0 1-10.7-27.9c0-32.7 19-58.2 56.8-76.7l9.9 18.1Zm-74.8 0c-21.3 10-32 22-32 35.5 9.2 1 16.8 4.6 22.7 10.7A29.7 29.7 0 0 1 66 85.6c0 8.5-2.9 15.7-8.7 21.6-5.8 5.9-13 8.8-21.7 8.8a33 33 0 0 1-25.2-11.4A39.6 39.6 0 0 1 0 76.7C0 44 18.8 18.5 56.5 0l10.1 18.1Z" clip-rule="evenodd"/></g><defs><clipPath id="a"><path fill="#fff" d="M0 0h142v116H0z"/></clipPath></defs></svg>