<svg xmlns="http://www.w3.org/2000/svg" width="96" height="78" fill="none"><g clip-path="url(#a)" opacity=".3"><path fill="#1DB5BE" fill-rule="evenodd" d="M95.6 12.2C81.3 19 74 26.9 74 36a24 24 0 0 1 15.1 7.2c4 4.1 6 9 6 14.3A20 20 0 0 1 74.8 78c-6.6 0-12.3-2.6-17-7.7a26.3 26.3 0 0 1-7.3-18.7c0-22 12.8-39.2 38.4-51.6l6.7 12.2Zm-50.5 0C30.6 19 23.4 26.9 23.4 36c6.2.7 11.3 3.1 15.3 7.2s6 9 6 14.3A20 20 0 0 1 24.1 78c-6.6 0-12.2-2.6-17-7.7A26.5 26.5 0 0 1 0 51.6C0 29.6 12.7 12.4 38.2 0L45 12.2Z" clip-rule="evenodd"/></g><defs><clipPath id="a"><path fill="#fff" d="M0 0h96v78H0z"/></clipPath></defs></svg>