<svg xmlns="http://www.w3.org/2000/svg" width="112" height="32" fill="none"><g clip-path="url(#a)"><path fill="#33475B" d="M12.1 5.3v9H4v-9H0v21.5h3.9v-8.7h8.2v8.7h4V5.3h-4Zm16.4 14.6a3.3 3.3 0 0 1-3.2 3.2 3.2 3.2 0 0 1-3.2-3.2v-9.3h-3.7V20a7 7 0 0 0 6.9 7 6.9 6.9 0 0 0 7-7v-9.3h-3.8V20ZM56 11.6c0-1.9 1.2-2.5 2.6-2.5 1 0 2.5.8 3.5 1.9l2.4-3a7.6 7.6 0 0 0-5.7-2.7c-4 0-7 2.4-7 6.3 0 7.3 9 5 9 9 0 1.3-1.3 2.4-2.7 2.4-2.2 0-2.9-1-3.9-2.2l-2.7 2.8a8 8 0 0 0 6.4 3.2c3.8 0 7-2.4 7-6.1 0-8.1-9-5.6-9-9.1m54.8 11.8c-2.2 0-2.8-1-2.8-2.4v-6.5h3.4v-3.3h-3.4V7L104 8.6v13.2c0 3.4 2.3 5 5.5 5h1.5l.9-3.5-1.3.1m-68-12.6c-1.8 0-3 .5-4.3 1.7v-7h-3.7v13c0 5 3.5 8.4 7.5 8.4 4.4 0 8.2-3.5 8.2-8 0-4.7-3.5-8.1-7.7-8.1Zm0 12.3a4.2 4.2 0 0 1-3.9-2.6 4.3 4.3 0 0 1 3-5.8 4.2 4.2 0 0 1 4.4 1.8 4.3 4.3 0 0 1-.5 5.4c-.8.8-1.9 1.2-3 1.2ZM83 18.6c0-4.6-4-8-8.4-8-4 0-7.5 3.3-7.5 8.3V32h3.7v-7a5.7 5.7 0 0 0 4.4 1.7c4.1 0 7.7-3.5 7.7-8Zm-3.6 0a4.3 4.3 0 0 1-2.6 3.9 4.2 4.2 0 0 1-5.7-3.1 4.3 4.3 0 0 1 1.7-4.4 4.2 4.2 0 0 1 5.4.6c.7.8 1.2 1.8 1.2 3Z"/><path fill="#FF7A59" d="M94.9 10.4V6.6A2.9 2.9 0 0 0 96.5 4a2.9 2.9 0 0 0-2.8-3h-.1a2.9 2.9 0 0 0-2.9 3 3 3 0 0 0 1.7 2.6v3.8a8 8 0 0 0-3.9 1.7l-10.2-8 .1-.8a3.3 3.3 0 0 0-2-3A3.2 3.2 0 0 0 72 2.5 3.3 3.3 0 0 0 73.4 6a3.2 3.2 0 0 0 3.4 0l10 8a8.3 8.3 0 0 0 .1 9.2l-3 3.1-.8-.1a2.6 2.6 0 0 0-2.4 1.6 2.7 2.7 0 0 0 2 3.7 2.6 2.6 0 0 0 2.6-1.1 2.7 2.7 0 0 0 .4-2.3l3-3a8.1 8.1 0 0 0 13.1-7 8.3 8.3 0 0 0-7-7.7Zm-1.3 12.3a4.2 4.2 0 0 1-3.8-2.6 4.3 4.3 0 0 1 3-5.7 4.2 4.2 0 0 1 4.3 1.8 4.2 4.2 0 0 1-.5 5.3c-.8.8-1.9 1.2-3 1.2"/></g><defs><clipPath id="a"><path fill="#fff" d="M0 0h112v32H0z"/></clipPath></defs></svg>