<svg xmlns="http://www.w3.org/2000/svg" width="16" height="13" fill="none"><g clip-path="url(#a)"><path fill="#1DB5BE" fill-rule="evenodd" d="M16 2c-2.5 1.2-3.6 2.5-3.6 4a4 4 0 0 1 2.5 1.2c.6.7 1 1.5 1 2.4a3.3 3.3 0 0 1-3.4 3.4c-1.1 0-2-.4-2.9-1.3a4.4 4.4 0 0 1-1.2-3.1c0-3.7 2.2-6.5 6.4-8.6L16 2ZM7.4 2C5.1 3.2 4 4.5 4 6a4 4 0 0 1 2.6 1.2c.6.7 1 1.5 1 2.4 0 1-.4 1.8-1 2.4-.7.7-1.5 1-2.5 1s-2-.4-2.8-1.3A4.4 4.4 0 0 1 0 8.6C0 4.9 2.1 2.1 6.4 0l1.1 2Z" clip-rule="evenodd"/></g><defs><clipPath id="a"><path fill="#fff" d="M0 0h16v13H0z"/></clipPath></defs></svg>