<svg xmlns="http://www.w3.org/2000/svg" width="112" height="32" fill="none"><g clip-path="url(#a)"><path fill="#8E75FF" fill-rule="evenodd" d="M24.5 4.9H8.2v8.9h8c.3 0 .5.2.5.6V23H25V5.4a.6.6 0 0 0-.2-.4h-.2l-.1-.1Z" clip-rule="evenodd"/><path fill="#8E75FF" fill-rule="evenodd" d="M8.2 4.9v8.9H.5l-.1-.2V13.3L8.2 5Zm9 26.5-.2.1H17l-.1-.1V23H25l-7.8 8.4Z" clip-rule="evenodd" opacity=".4"/><path fill="#8E75FF" d="M8.2 13.8h8.3c.1 0 .2.1.2.3V23h-8s-.2 0-.3-.2a.6.6 0 0 1-.2-.4v-8.6Z" opacity=".4"/><path fill="#1D1B84" fill-rule="evenodd" d="M108 4.3c.5.5 1 .8 1.7.8.6 0 1.1-.3 1.6-.8s.7-1 .7-1.8a2.6 2.6 0 0 0-1.4-2.3 2.1 2.1 0 0 0-2.5.6c-.5.5-.8 1-.8 1.7s.3 1.3.7 1.8Zm-50 6.5v.1h-3.2v6.7c0 .5 0 1 .3 1.2.3.2.7.4 1.2.4H58V23c-2.6.3-4.4 0-5.4-.8S51 19.7 51 17.6v-6.7h-2.5V7H51V4.2l3.6-1.7h.1V7H58v3.8Zm7-1c.3-1.1.9-1.9 1.7-2.4a5 5 0 0 1 2.6-.7h.1v4.5h-.1c-1.1 0-2.1.2-3 .8-.9.7-1.3 1.8-1.3 3.3v7.5l-.1.1h-3.7V7H65v2.7ZM82.9 7h-.1V9A5.6 5.6 0 0 0 78 6.5c-2 0-3.6.8-5 2.5a8.8 8.8 0 0 0-2.1 6c0 2.3.7 4.3 2 6 1.5 1.5 3.1 2.4 5 2.4 2.1 0 3.7-.8 4.9-2.4V23h3.7V7a.1.1 0 0 0 0-.1h-3.6Zm-7.1 11.2c.8.8 1.7 1.2 2.9 1.2s2.1-.4 3-1.2c.7-.9 1-2 1-3.3 0-1.3-.3-2.4-1-3.2a3.8 3.8 0 0 0-3-1.3c-1.2 0-2.1.5-3 1.3-.7.8-1 2-1 3.2 0 1.4.3 2.4 1 3.3ZM103.4 9a6.5 6.5 0 0 0-5-2.5c-2.1 0-3.7.8-4.8 2.4V7H89.8v22.2h3.7V21a5.5 5.5 0 0 0 4.8 2.4c2 0 3.7-.9 5.1-2.5a8.8 8.8 0 0 0 2.1-6c0-2.3-.7-4.3-2-6Zm-8.7 9.2c.8.8 1.8 1.2 3 1.2 1.1 0 2-.4 2.9-1.2.7-.9 1.1-2 1.1-3.3 0-1.3-.4-2.4-1.1-3.2a3.8 3.8 0 0 0-3-1.3c-1.1 0-2.1.5-2.9 1.3-.7.8-1.1 2-1.1 3.2 0 1.4.4 2.4 1.1 3.3Zm13.2 4.7h-.1V7h3.7V23h-3.6ZM40.3 12.5c-.5-.2-.8-.6-.8-1s.2-.7.5-1a2 2 0 0 1 1.2-.3c1 0 1.7.4 2.1 1.2h.2l3.2-1.5V9.5a6.2 6.2 0 0 0-5.4-3 6 6 0 0 0-4 1.3c-1.1.9-1.7 2.1-1.7 3.7 0 1 .3 1.9.8 2.6.5.7 1.2 1.2 2 1.5l2.1.8 2 .7c.5.3.7.6.7 1 0 1-.7 1.4-2 1.4s-2.2-.5-2.7-1.5V18h-.2L35 19.5a.1.1 0 0 0 0 .1v.1c1.1 2.4 3.1 3.7 6 3.7 1.8 0 3.2-.5 4.3-1.4a4.5 4.5 0 0 0 1.7-3.7c0-1.1-.3-2-.8-2.8a4.4 4.4 0 0 0-1.9-1.5l-2.2-.8-2-.7Z" clip-rule="evenodd"/></g><defs><clipPath id="a"><path fill="#fff" d="M0 0h112v32H0z"/></clipPath></defs></svg>