<svg xmlns="http://www.w3.org/2000/svg" width="33" height="32" fill="none"><g clip-path="url(#a)"><path fill="#7C3AED" d="M15.7.2 1.3 6.9a.6.6 0 0 0 0 1l14.5 6.7c.5.2 1 .2 1.4 0L31.7 8a.6.6 0 0 0 0-1L17.3.2a1.9 1.9 0 0 0-1.6 0Z"/><path fill="#C4B5FD" d="m31.7 15.6-3-1.4a1.6 1.6 0 0 0-1.3 0l-10.2 4.7a1.6 1.6 0 0 1-1.4 0L5.6 14.2a1.6 1.6 0 0 0-1.3 0l-3 1.4a.6.6 0 0 0 0 1l14.5 6.7a1.6 1.6 0 0 0 1.4 0l14.5-6.7a.6.6 0 0 0 0-1Z" opacity=".6"/><path fill="#1DB5BE" d="m31.7 24.1-3-1.3a1.6 1.6 0 0 0-1.3 0l-10.2 4.6a1.6 1.6 0 0 1-1.4 0L5.6 22.7a1.6 1.6 0 0 0-1.3 0l-3 1.4a.6.6 0 0 0 0 1L15.8 32h1.4l14.5-6.7a.6.6 0 0 0 0-1Z"/></g><defs><clipPath id="a"><path fill="#fff" d="M.5 0h32v32H.5z"/></clipPath></defs></svg>