<svg xmlns="http://www.w3.org/2000/svg" width="91" height="28" fill="none"><g clip-path="url(#a)"><path fill="#FF385C" d="m26.3 19.8-.4-1-.7-1.4c-2-4.2-4-8.5-6.2-12.7v-.2l-.8-1.3c-.2-.5-.5-1-1-1.5A4.7 4.7 0 0 0 11.6.4c-.6.3-1.2.7-1.6 1.3L9 3.2l-.7 1.3v.2C6 9 4 13.2 2 17.4L1.3 19l-.4 1a5.9 5.9 0 0 0 3.3 7.6c1 .4 2 .6 3 .4 1 0 2-.4 2.9-1 1.1-.6 2.2-1.5 3.4-2.8A15 15 0 0 0 17 27c1.1.6 2.3 1 3.6 1a6 6 0 0 0 6-5.1c.2-1 0-2-.3-3Zm-12.7 1.5a14 14 0 0 1-2.8-5.2c-.2-.6-.2-1.2-.1-1.7 0-.5.2-.9.5-1.2a3 3 0 0 1 2.4-1.2 3 3 0 0 1 2.5 1.2c.2.3.4.7.4 1.2V16c-.4 1.5-1.4 3.3-2.9 5.2ZM25 22.6a4.1 4.1 0 0 1-2.6 3.3c-.7.3-1.4.3-2.1.3-.7-.1-1.4-.4-2.2-.8-1.2-.7-2.2-1.6-3.2-2.7 1.9-2.3 3-4.3 3.4-6.2.2-.9.3-1.7.2-2.4a4.7 4.7 0 0 0-4.7-4c-1.7.1-3.1.9-4 2-.4.7-.7 1.3-.8 2 0 .8 0 1.6.2 2.4.4 1.9 1.5 4 3.4 6.2-1 1.1-2 2-3.2 2.8-.8.4-1.5.6-2.2.7a4.2 4.2 0 0 1-4.7-3.6c0-.7 0-1.4.3-2.2l.4-.9.6-1.4c2-4.2 4-8.5 6.2-12.6v-.2l.7-1.3.8-1.2A3 3 0 0 1 15 2c.4.2.8.5 1 .8l.8 1.2.7 1.3v.2c2.2 4.1 4.3 8.4 6.3 12.6l.6 1.4.4.9c.2.8.3 1.5.2 2.2ZM37.2 21a4.5 4.5 0 0 1-3.5-1.6c-1-1-1.5-2.5-1.4-4a6 6 0 0 1 1.4-4 4.7 4.7 0 0 1 5.5-1.1c.5.3 1 .7 1.4 1.2v-1.3h2.6v10.5h-2.5l-.1-1.5a4 4 0 0 1-3.4 1.8Zm.6-2.5c.5 0 1-.2 1.4-.4l1-1.1c.2-.4.3-1 .3-1.6a3 3 0 0 0-1.3-2.6 2.6 2.6 0 0 0-2.8 0l-1 1c-.1.5-.3 1-.2 1.6a3 3 0 0 0 1.3 2.7c.4.2.8.4 1.3.4Zm9.9-11.2c0 .3 0 .6-.2.8l-.6.6-.8.2c-.3 0-.6 0-.9-.2l-.5-.6c-.2-.2-.3-.5-.2-.8 0-.3 0-.6.2-.8 0-.3.3-.4.5-.6l.9-.2a1.6 1.6 0 0 1 1.4.8l.2.8Zm-3 13.4V10.2h2.8v10.6h-2.8ZM55 13h-.5l-.5-.1c-.7 0-1.3.2-1.7.7-.4.5-.6 1.1-.6 2v5.2h-2.9V10.2h2.6l.1 1.6c.3-.5.6-1 1.1-1.3.5-.3 1-.4 1.6-.4h.6l.2.1V13Zm1.1 7.8V5.9h2.8v5.7c.4-.5.8-1 1.4-1.2a4.5 4.5 0 0 1 5.4 1.1c1 1.1 1.4 2.5 1.4 4a6 6 0 0 1-1.5 4 4.7 4.7 0 0 1-5.4 1.2c-.6-.3-1-.8-1.4-1.3l-.1 1.4H56Zm5.4-2.2c.5 0 1-.2 1.4-.4l1-1.1c.2-.4.3-1 .3-1.6 0-.6-.1-1.1-.3-1.5-.3-.5-.6-.8-1-1.1a2.6 2.6 0 0 0-2.8 0c-.4.2-.7.6-1 1-.1.5-.3 1-.3 1.6a3 3 0 0 0 1.3 2.7c.5.2 1 .4 1.4.4Zm6.6 2.2V10.2h2.6l.1 1.4A3.5 3.5 0 0 1 74 9.9a3.6 3.6 0 0 1 3.4 2.2c.3.6.5 1.5.5 2.4v6.3H75v-6c0-.7-.2-1.3-.5-1.7-.4-.4-.8-.6-1.4-.6-.4 0-.8 0-1.1.2-.3.2-.6.5-.8.9-.2.3-.3.7-.3 1.1v6.1h-2.8Zm11.1 0v-15H82v5.8a4.1 4.1 0 0 1 3.3-1.7 4.5 4.5 0 0 1 3.5 1.6c1 1.1 1.4 2.5 1.4 4a6 6 0 0 1-1.5 4 4.7 4.7 0 0 1-5.4 1.2c-.6-.3-1-.8-1.4-1.3l-.1 1.4h-2.6Zm5.4-2.2c.6 0 1-.2 1.4-.4l1-1.1c.2-.4.3-1 .3-1.6A3 3 0 0 0 86 13a2.6 2.6 0 0 0-2.7 0c-.4.2-.7.6-1 1-.2.5-.3 1-.3 1.6a3 3 0 0 0 1.3 2.7c.4.2.8.4 1.3.4Z"/></g><defs><clipPath id="a"><path fill="#fff" d="M.5 0h90v28H.5z"/></clipPath></defs></svg>