<svg xmlns="http://www.w3.org/2000/svg" width="81" height="24" fill="none"><g clip-path="url(#a)"><path fill="#F60" d="m60 23.3 6.7-7.4L60 8.5h7l3.3 3.6 3.2-3.6h6.8l-6.6 7.4 6.7 7.4h-7L70 19.7l-3.3 3.6H60ZM60 5.2h-7.6v3.3H60v5h-7.6v4.6H60v5.2H46.9V0h13v5.2Z"/><path fill="#652C8F" d="M41.4 0v9.5h-.1a5.6 5.6 0 0 0-4.5-1.8 7.6 7.6 0 0 0-7.4 5.6c-1-3.5-3.9-5.7-8-5.7-3.5 0-6.2 1.5-7.6 4V8.5h-7V5.2h7.7V0H.5v23.3h6.3v-9.8H13c-.2.7-.3 1.5-.3 2.3 0 4.9 3.8 8.3 8.6 8.3 4 0 6.7-2 8.1-5.3H24c-.7 1-1.2 1.3-2.7 1.3a3.2 3.2 0 0 1-3.1-3.2h11a8 8 0 0 0 7.6 7.2c1.8 0 3.5-.8 4.5-2.3v1.5H47V0h-5.5Zm-23 13.6a3 3 0 0 1 3-2.5c1.5 0 2.6 1 2.9 2.5h-6ZM38 19.7c-2 0-3.3-1.8-3.3-3.8 0-2 1-4 3.3-4s3.2 2 3.2 4-1 3.8-3.2 3.8Z"/></g><defs><clipPath id="a"><path fill="#fff" d="M.5 0h80v24H.5z"/></clipPath></defs></svg>