<svg xmlns="http://www.w3.org/2000/svg" width="85" height="28" fill="none"><g clip-path="url(#a)"><path fill="#EA4335" d="M36.2 14.4c0 3.8-3 6.7-6.8 6.7a6.7 6.7 0 0 1-6.9-6.7c0-4 3-6.8 6.9-6.8 3.8 0 6.8 2.8 6.8 6.8Zm-3 0c0-2.5-1.7-4.1-3.8-4.1-2.1 0-3.9 1.6-3.9 4 0 2.5 1.8 4.1 3.9 4.1 2 0 3.8-1.6 3.8-4Z"/><path fill="#FBBC05" d="M51 14.4c0 3.8-3 6.7-6.8 6.7a6.7 6.7 0 0 1-6.9-6.7c0-4 3.1-6.8 6.9-6.8 3.8 0 6.9 2.8 6.9 6.8Zm-3 0c0-2.5-1.7-4.1-3.8-4.1-2 0-3.9 1.6-3.9 4 0 2.5 1.8 4.1 3.9 4.1 2 0 3.9-1.6 3.9-4Z"/><path fill="#4285F4" d="M65.3 8v12.1c0 5-3 7-6.5 7a6.5 6.5 0 0 1-6.1-4l2.6-1a3.8 3.8 0 0 0 3.5 2.4c2.2 0 3.6-1.4 3.6-4v-1c-.8.9-2 1.6-3.7 1.6-3.4 0-6.6-3-6.6-6.7 0-3.8 3.2-6.8 6.6-6.8 1.6 0 3 .7 3.6 1.5h.1v-1h2.9Zm-2.7 6.4c0-2.4-1.6-4.1-3.6-4.1-2.1 0-3.8 1.7-3.8 4 0 2.4 1.7 4.1 3.8 4.1 2 0 3.6-1.7 3.6-4Z"/><path fill="#34A853" d="M70 1v19.7h-3V.9h3Z"/><path fill="#EA4335" d="m81.4 16.6 2.4 1.5c-.8 1.1-2.6 3-5.8 3-3.8 0-6.8-3-6.8-6.7 0-4 3-6.8 6.5-6.8 3.6 0 5.3 2.8 5.9 4.3l.3.8-9.2 3.7c.7 1.4 1.8 2 3.3 2a4 4 0 0 0 3.4-1.8Zm-7.2-2.4 6.2-2.6c-.4-.8-1.4-1.4-2.6-1.4a3.7 3.7 0 0 0-3.6 4Z"/><path fill="#4285F4" d="M11.4 12.6V9.7h9.8l.1 1.8c0 2.1-.6 4.8-2.5 6.7-1.8 1.9-4.2 3-7.4 3C5.5 21.1.6 16.3.6 10.5S5.6.1 11.4.1c3.2 0 5.6 1.3 7.3 3l-2 2c-1.3-1.2-3-2-5.3-2a7.6 7.6 0 0 0-7.6 7.5c0 4.2 3.3 7.6 7.6 7.6 2.8 0 4.4-1 5.4-2 .8-.9 1.3-2 1.5-3.6h-6.9Z"/></g><defs><clipPath id="a"><path fill="#fff" d="M.5 0h84v28H.5z"/></clipPath></defs></svg>