<svg xmlns="http://www.w3.org/2000/svg" width="87" height="24" fill="none"><g clip-path="url(#a)"><path fill="#33475B" d="M9.8 4v6.7H3.5V4h-3V20h3v-6.5h6.3V20h3V4h-3ZM22.4 15c0 .6-.3 1.2-.7 1.6a2.5 2.5 0 0 1-3.5 0c-.5-.4-.8-1-.8-1.7V8h-2.8v7a5.4 5.4 0 0 0 9 3.7c1-1 1.6-2.3 1.6-3.7V8h-2.8v7ZM43.5 8.7c0-1.4 1-1.9 2-1.9.8 0 2 .7 2.7 1.4L50 6.1C49 4.8 47.2 4 45.7 4c-3.1 0-5.4 1.8-5.4 4.7 0 5.5 6.8 3.7 6.8 6.8 0 1-.9 1.8-2 1.8-1.6 0-2.2-.8-3-1.7l-2 2.1c1.3 1.6 3 2.4 4.9 2.4 3 0 5.3-1.8 5.3-4.6 0-6-6.8-4.2-6.8-6.8M85.5 17.6c-1.7 0-2.2-.8-2.2-1.9V11H86V8.4h-2.7V5.2l-2.8 1.3v9.8c0 2.6 1.7 3.8 4.2 3.8h1.1l.7-2.6h-1M33.2 8c-1.4 0-2.4.5-3.3 1.4V4H27v9.8c0 3.7 2.8 6.2 5.8 6.2 3.4 0 6.3-2.5 6.3-6a6 6 0 0 0-5.9-6Zm0 9.3a3.3 3.3 0 0 1-3-2A3.1 3.1 0 0 1 31 12a3.2 3.2 0 0 1 5.5 2.2c0 .9-.3 1.7-.9 2.3-.6.6-1.4 1-2.3 1ZM64.2 14c0-3.5-3-6-6.4-6-3 0-5.7 2.5-5.7 6.1v10h2.8v-5.4c1 .9 2 1.3 3.3 1.3a6 6 0 0 0 6-6Zm-2.7 0a3.1 3.1 0 0 1-2 2.9 3.3 3.3 0 0 1-3.6-.7 3.2 3.2 0 0 1 2.3-5.5c.9 0 1.7.4 2.3 1 .6.6 1 1.4 1 2.2Z"/><path fill="#FF7A59" d="M73.4 7.8V5a2.2 2.2 0 0 0 1.2-2c0-.6-.2-1.2-.6-1.6-.4-.4-1-.6-1.6-.6-.6 0-1.2.2-1.6.6-.4.4-.6 1-.6 1.6a2.1 2.1 0 0 0 1.2 2v2.8c-1 .2-2 .6-3 1.3l-7.8-6 .1-.7A2.4 2.4 0 0 0 59.2.2a2.5 2.5 0 0 0-2.7.5A2.4 2.4 0 0 0 58.2 5c.4 0 .9-.1 1.2-.3l7.8 5.9a6 6 0 0 0 0 7L65 19.6a2 2 0 0 0-2.5 1.1 2 2 0 0 0 .5 2.3 2 2 0 0 0 3.5-1.5l-.1-.5 2.3-2.3a6.3 6.3 0 0 0 9.6-2.5A6 6 0 0 0 76 8.8c-.8-.5-1.7-.9-2.6-1Zm-1 9.3a3.3 3.3 0 0 1-3-2 3.1 3.1 0 0 1 .7-3.5 3.2 3.2 0 0 1 5.5 2.3c0 .8-.3 1.6-1 2.2-.5.6-1.3 1-2.2 1"/></g><defs><clipPath id="a"><path fill="#fff" d="M.5 0h86v24H.5z"/></clipPath></defs></svg>