<svg xmlns="http://www.w3.org/2000/svg" width="123" height="26" fill="none"><g clip-path="url(#a)"><path fill="#737373" d="m43.6 15-.8 2-.7-2-4-9.8h-3.7v15.6h2.5V9.1l-.1-1 .4 1.3 4.7 11.4h1.8l4.6-11.5.3-1.2v12.7h2.6V5.2h-3.6l-4 9.8Zm10.2-5.4h2.6v11.2h-2.6V9.6ZM55 4.9c-.4 0-.8.1-1 .4-.4.3-.6.7-.6 1.1 0 .4.2.8.5 1 .3.4.7.5 1.1.5.5 0 .8-.2 1.1-.4.3-.3.5-.7.5-1 0-.5-.2-.9-.5-1.2-.2-.3-.6-.4-1-.4Zm10.6 4.6-1.5-.2c-1.1 0-2.2.3-3.1.8-1 .5-1.7 1.3-2.1 2.2a6.8 6.8 0 0 0 0 6c.4 1 1 1.6 2 2 .7.5 1.7.8 2.8.8 1.3 0 2.3-.3 3.2-.8V18h-.1a4.5 4.5 0 0 1-2.5 1c-1 0-2-.3-2.5-1-.6-.6-.9-1.5-.9-2.6 0-1.2.3-2 1-2.7.6-.7 1.4-1 2.4-1 .8 0 1.7.2 2.5.8V10l-1.2-.4Zm8.7 0c-.7 0-1.3.1-1.8.5-.4.4-.7 1-1 1.5v-2H69v11.3h2.6V15c0-1 .2-1.8.6-2.4.5-.6 1-1 1.7-1l.8.2c.3 0 .5.2.6.3h.1V9.6a2 2 0 0 0-1-.2Zm7.1-.1c-1.8 0-3.3.5-4.3 1.6a6 6 0 0 0-1.6 4.4c0 1.7.6 3.1 1.6 4.1 1 1 2.4 1.6 4 1.6 1.9 0 3.3-.6 4.3-1.7a6 6 0 0 0 1.6-4.3c0-1.8-.5-3.2-1.5-4.2s-2.3-1.5-4-1.5Zm2.1 8.5c-.4.7-1.2 1-2.2 1-1 0-1.7-.3-2.2-1-.6-.6-.8-1.5-.8-2.7 0-1.2.2-2 .8-2.7.5-.7 1.3-1 2.2-1 1 0 1.7.3 2.2 1 .5.6.8 1.5.8 2.7 0 1.2-.3 2.1-.8 2.7Zm9.3-3.7c-.8-.3-1.3-.6-1.5-.8-.2-.2-.3-.5-.3-.8 0-.3 0-.6.4-.8a2 2 0 0 1 1.1-.4l1.4.2 1.2.6V9.9a7.3 7.3 0 0 0-2.5-.5c-1.2 0-2.3.3-3 1a3 3 0 0 0-1.3 2.5c0 .5.1 1 .3 1.3.2.4.4.8.8 1 .4.4.9.7 1.6 1l1.4.6.6.5.1.6c0 .8-.5 1.1-1.7 1.1-.4 0-.9 0-1.4-.2-.6-.2-1-.5-1.5-.8h-.1v2.5a7.8 7.8 0 0 0 3 .6 5 5 0 0 0 3.2-1 3 3 0 0 0 1.3-2.5c0-.7-.2-1.4-.7-1.9-.6-.5-1.3-1-2.4-1.4Zm10-4.8c-1.9 0-3.3.5-4.4 1.6a6 6 0 0 0-1.5 4.4c0 1.7.5 3.1 1.5 4.1 1 1 2.4 1.6 4.1 1.6 1.8 0 3.3-.6 4.3-1.7a6 6 0 0 0 1.5-4.3c0-1.8-.4-3.2-1.4-4.2-1-1-2.4-1.5-4.1-1.5Zm2 8.5c-.4.7-1.2 1-2.1 1-1 0-1.8-.3-2.3-1-.5-.6-.8-1.5-.8-2.7 0-1.2.3-2 .8-2.7.5-.7 1.3-1 2.2-1 1 0 1.7.3 2.2 1 .6.6.8 1.5.8 2.7 0 1.2-.2 2.1-.7 2.7Zm17.6-6.1V9.6h-2.7V6.3l-2.6.8v2.5h-4V8.2c0-.7.2-1.2.5-1.5.3-.3.7-.5 1.2-.5l1.2.3V4.4c-.3-.2-.8-.2-1.5-.2s-1.4.1-2 .4c-.7.4-1.1.8-1.5 1.5-.3.6-.5 1.3-.5 2v1.6h-1.9v2.1h1.9v9h2.6v-9h4v5.8c0 2.4 1.1 3.5 3.3 3.5h1.1l.9-.3v-2.2h-.1l-.6.3h-.5c-.5 0-.9 0-1.1-.3-.3-.3-.4-.8-.4-1.5v-5.2h2.7Z"/><path fill="#F25022" d="M.5 0h12.4v12.4H.5V0Z"/><path fill="#7FBA00" d="M14.2 0h12.4v12.4H14.2V0Z"/><path fill="#00A4EF" d="M.5 13.6h12.4V26H.5V13.6Z"/><path fill="#FFB900" d="M14.2 13.6h12.4V26H14.2V13.6Z"/></g><defs><clipPath id="a"><path fill="#fff" d="M.5 0h122v26H.5z"/></clipPath></defs></svg>