<svg xmlns="http://www.w3.org/2000/svg" width="113" height="26" fill="none"><g clip-path="url(#a)"><path fill="#041E42" d="M40.4 9.2v1.5c.5-.8 1.4-1.7 3.4-1.7 1.5 0 2.7.8 3.2 2l1.5-1.4c.7-.4 1.4-.6 2.3-.6 2.1 0 4 1.3 4 4.7v6.4h-3.2v-6c0-1.7-.7-2.6-2-2.6a2 2 0 0 0-1.8 1.3l-.2.9V20h-3.1v-6.2c0-1.4-.6-2.4-2-2.4-1 0-1.6.7-1.8 1.3l-.2 1V20h-3.1V9.2h3Zm30.6 0v2.1h.1a3.4 3.4 0 0 1 4-2.2v2.8h-1c-1.4 0-2.3.7-2.6 1.8V20.1h-3.3V9.2H71Zm8.4-3.5V9h2.8v2.7h-2.8V16c0 1.3.4 2 1.5 2 .5 0 .8 0 1.2-.2V20a8 8 0 0 1-2.3.3c-1 0-2-.3-2.5-.9-.7-.6-1-1.6-1-3V5.6h3.1ZM35.2 20H32V5.7h3.2V20Zm-8.4-3.9-.1.6c-.3.8-1.1 1.4-2.1 1.4s-1.6-.5-1.6-1.4c0-1.5 1.8-2 3.8-2v1.4Zm3.1-2.6c0-2.4-1.1-4.6-5-4.6-1.9 0-3.4.5-4.3 1l.6 2c.8-.5 2-.9 3.2-.9 2 0 2.3 1 2.3 1.7v.1c-4.3 0-7 1.4-7 4.2 0 1.7 1.4 3.2 3.8 3.2 1.4 0 2.7-.5 3.4-1.4 0 0 .5 2 3.2 1.2-.2-.8-.2-1.6-.2-2.6v-3.9Zm-26-8 1.3 6 1 5.3 1.2-5L9 5.7h3.4l1.5 6.3.9 4.8 1-4.9 1.4-6.2h3.3l-4 14.4c-2.7.5-3.7-.4-4-2l-1.1-4.5c-.4-1.6-.6-2.8-.8-4.4a44 44 0 0 1-1.1 4.4L7.8 20c-2.7.5-3.6-.2-4.1-2.2L.5 5.7H4Zm59 10.6v.6c-.3.8-1.1 1.4-2.1 1.4s-1.6-.5-1.6-1.4c0-1.5 1.8-2 3.8-2v1.4Zm3.2-2.6c0-2.4-1.1-4.6-5-4.6-1.9 0-3.4.5-4.3 1l.6 2c.8-.5 2-.9 3.2-.9 2 0 2.3 1 2.3 1.7v.1c-4.3 0-7 1.4-7 4.2 0 1.7 1.4 3.2 3.8 3.2 1.4 0 2.7-.5 3.4-1.4 0 0 .5 2 3.2 1.2-.2-.8-.2-1.6-.2-2.6v-3.9Z"/><path fill="#FFC124" d="M95 15.1c.2.6.2 1.1-.1 1.4l-5.7 4c-.6.3-1.5-.1-2-1s-.5-1.8.1-2.1l6.4-3c.4 0 1 .2 1.2.7Zm7.5 0c.3-.5.8-.8 1.2-.6l6.3 2.8c.6.4.7 1.3.2 2.2-.5.9-1.4 1.3-2 1l-5.7-4c-.3-.3-.4-.9 0-1.4Zm-3.8 2.1c.6 0 1.1.4 1.2.8l.6 6.8c0 .6-.8 1.2-1.8 1.2s-1.8-.6-1.8-1.2l.6-6.8c0-.4.6-.8 1.2-.8Zm3.8-7.7 5.7-4c.6-.3 1.5.1 2 1s.4 1.8-.2 2.1l-6.3 3c-.4 0-1-.2-1.2-.7-.4-.6-.3-1.1 0-1.4Zm-8.8 2-6.4-2.9c-.5-.3-.6-1.2-.1-2.1.5-.9 1.4-1.3 2-1l5.7 4c.3.3.3.8 0 1.4-.3.5-.8.8-1.2.6ZM97.5 8l-.6-6.8c0-.6.8-1.2 1.8-1.2s1.8.6 1.8 1.2L100 8c0 .4-.6.8-1.2.8s-1.1-.4-1.2-.8Zm14.3 12.4v-.2h.1l.1.1v.1h-.2Zm-.2.3h.1v-.2h.2v.2h.2v-.4c0-.1 0-.2-.2-.2h-.2v.6Zm-.2-.3c0-.2.2-.5.5-.5.2 0 .5.2.5.5s-.2.5-.5.5a.5.5 0 0 1-.5-.5Zm-.2 0c0 .4.3.6.7.6.3 0 .6-.2.6-.6 0-.3-.3-.6-.6-.6-.4 0-.7.3-.7.6Z"/></g><defs><clipPath id="a"><path fill="#fff" d="M.5 0h112v26H.5z"/></clipPath></defs></svg>